<?xml version="1.0" standalone="no"?>
<!DOCTYPE svg PUBLIC "-//W3C//DTD SVG 20010904//EN"
 "http://www.w3.org/TR/2001/REC-SVG-20010904/DTD/svg10.dtd">
<svg version="1.0" xmlns="http://www.w3.org/2000/svg"
 width="200.000000pt" height="200.000000pt" viewBox="0 0 200.000000 200.000000"
 preserveAspectRatio="xMidYMid meet">
<metadata>
Created by potrace 1.14, written by Peter Selinger 2001-2017
</metadata>
<g transform="translate(0.000000,200.000000) scale(0.100000,-0.100000)"
fill="#000000" stroke="none">
<path d="M83 1982 c-17 -9 -42 -30 -55 -47 l-23 -30 -3 -885 c-3 -981 -5 -945
61 -992 l32 -23 893 -3 c813 -2 895 -1 924 14 40 21 51 32 72 71 14 29 16 118
16 907 0 969 2 932 -64 979 l-31 22 -895 2 c-830 2 -897 1 -927 -15z m618
-652 c45 0 37 -38 -31 -149 -33 -54 -60 -102 -60 -107 0 -5 24 -29 52 -54 110
-94 128 -116 128 -151 0 -18 -8 -51 -19 -73 -69 -152 -83 -175 -101 -181 -30
-9 -90 13 -90 33 0 9 18 53 40 97 22 44 40 86 40 93 0 8 -45 58 -100 112
l-100 97 36 69 c19 37 48 87 64 110 15 23 33 58 40 79 11 34 15 37 42 31 17
-3 43 -6 59 -6z m709 -10 c6 -10 12 -45 15 -77 3 -32 9 -85 14 -118 13 -77 31
-206 36 -248 4 -29 13 -87 20 -127 17 -94 16 -118 -2 -123 -53 -16 -100 -18
-101 -5 0 7 -3 24 -6 38 -10 44 -15 74 -21 123 -14 122 -17 146 -26 196 -5 30
-10 56 -12 57 -2 2 -14 -36 -26 -84 -79 -294 -80 -296 -111 -300 -17 -2 -33 5
-48 21 -18 19 -70 150 -125 315 -14 43 -27 41 -28 -5 -1 -21 -2 -49 -4 -63 -2
-23 -9 -105 -21 -244 -2 -33 -6 -61 -7 -62 -2 -2 -25 3 -52 12 -28 8 -52 14
-54 14 -8 0 4 216 14 268 2 12 7 56 10 99 4 43 9 86 11 96 1 9 6 54 9 100 10
133 7 128 69 126 65 -3 56 13 138 -233 72 -217 73 -220 82 -170 20 110 101
378 119 391 7 5 28 10 46 12 19 1 37 4 40 6 7 8 10 6 21 -15z"/>
</g>
</svg>
