<svg id="Layer_1" data-name="Layer 1" xmlns="http://www.w3.org/2000/svg" viewBox="0 0 128 128"><title>CONTACTS</title><path d="M121.25,27.27H6.75A6.758,6.758,0,0,0,0,34.02V93.98a6.758,6.758,0,0,0,6.75,6.75h114.5A6.758,6.758,0,0,0,128,93.98V34.02A6.758,6.758,0,0,0,121.25,27.27ZM124.5,93.98a3.254,3.254,0,0,1-3.25,3.25H6.75A3.254,3.254,0,0,1,3.5,93.98V34.02a3.254,3.254,0,0,1,3.25-3.25h114.5a3.254,3.254,0,0,1,3.25,3.25Z"/><path d="M36.983,37.915a26.1,26.1,0,1,0,26.1,26.1A26.133,26.133,0,0,0,36.983,37.915Zm-6.13,39.844a1.749,1.749,0,0,0,.663-1.042l.361-1.725a6.163,6.163,0,0,0-1.629-5.568,9.4,9.4,0,1,1,13.464,0,6.152,6.152,0,0,0-1.625,5.564l.361,1.725a1.749,1.749,0,0,0,.663,1.042L49.7,82.7a22.761,22.761,0,0,1-25.433,0Zm21.654,2.667-6.768-5.072-.226-1.078a2.657,2.657,0,0,1,.705-2.4,12.9,12.9,0,1,0-18.478-.007,2.667,2.667,0,0,1,.711,2.41l-.226,1.078-6.768,5.072a22.6,22.6,0,1,1,31.049,0Z"/><path d="M115.25,37.915H75a1.75,1.75,0,0,0,0,3.5h40.25a1.75,1.75,0,0,0,0-3.5Z"/><path d="M115.25,50.092H75a1.75,1.75,0,0,0,0,3.5h40.25a1.75,1.75,0,0,0,0-3.5Z"/><path d="M115.25,62.27H75a1.75,1.75,0,0,0,0,3.5h40.25a1.75,1.75,0,0,0,0-3.5Z"/><path d="M115.25,74.446H75a1.75,1.75,0,0,0,0,3.5h40.25a1.75,1.75,0,0,0,0-3.5Z"/><path d="M95.125,86.623H75a1.75,1.75,0,0,0,0,3.5H95.125a1.75,1.75,0,0,0,0-3.5Z"/></svg>