<svg width="18" height="19" viewBox="0 0 18 19" fill="none" xmlns="http://www.w3.org/2000/svg">
<g id="contact">
<g id="phone">
<path id="frame" d="M1.5 5.5H5.5C6.01804 5.5 6.5 5.96383 6.5 6.61538V17.3846C6.5 18.0362 6.01804 18.5 5.5 18.5H1.5C0.981964 18.5 0.5 18.0362 0.5 17.3846V6.61538C0.5 5.96383 0.981964 5.5 1.5 5.5Z" stroke="black"/>
<path id="button" d="M4.09782 17C4.09782 17.3038 3.85159 17.55 3.54782 17.55C3.24406 17.55 2.99782 17.3038 2.99782 17C2.99782 16.6962 3.24406 16.45 3.54782 16.45C3.85159 16.45 4.09782 16.6962 4.09782 17Z" stroke="black" stroke-width="0.2"/>
<line id="Line 7" x1="1" y1="15.9" x2="7" y2="15.9" stroke="black" stroke-width="0.2"/>
</g>
<path id="mail" fill-rule="evenodd" clip-rule="evenodd" d="M2.81925 0C2.36679 0 2 0.366788 2 0.819246C2 1.10702 2.15099 1.37369 2.39775 1.52174L9.21006 5.60913C9.69939 5.90273 10.3129 5.89324 10.7929 5.58466L17 1.5944V10.5C17 10.7761 16.7761 11 16.5 11H7V12H16.5C17.3284 12 18 11.3284 18 10.5V1.5C18 0.671572 17.3284 0 16.5 0H2.81925ZM2 5H3V2.5C3 2.22386 2.77614 2 2.5 2C2.22386 2 2 2.22386 2 2.5V5ZM16.0754 1H3.47183L9.72455 4.75164C9.88766 4.8495 10.0922 4.84634 10.2522 4.74348L16.0754 1Z" fill="black"/>
</g>
</svg>
