<svg width="16" height="18" viewBox="0 0 16 18" stroke="black" fill="none" xmlns="http://www.w3.org/2000/svg">
<g id="resume">
<path id="paper" d="M0.5 5H3.5C4.32843 5 5 4.32843 5 3.5V0.5H15C15.2761 0.5 15.5 0.723858 15.5 1V17C15.5 17.2761 15.2761 17.5 15 17.5H1C0.723858 17.5 0.5 17.2761 0.5 17V5ZM1.20711 4L4 1.20711V3.5C4 3.77614 3.77614 4 3.5 4H1.20711Z"/>
<g id="picture">
<g id="person">
<circle id="body" cx="11" cy="5" r="0.5" fill="#D9D9D9"/>
<g id="head">
<mask id="path-3-inside-1_23_180" fill="white">
<path d="M13 8C13 7.73736 12.9483 7.47728 12.8478 7.23463C12.7472 6.99198 12.5999 6.7715 12.4142 6.58579C12.2285 6.40007 12.008 6.25275 11.7654 6.15224C11.5227 6.05173 11.2626 6 11 6C10.7374 6 10.4773 6.05173 10.2346 6.15224C9.99198 6.25275 9.7715 6.40007 9.58579 6.58579C9.40007 6.7715 9.25275 6.99198 9.15224 7.23463C9.05173 7.47728 9 7.73736 9 8L11 8H13Z"/>
</mask>
<path d="M13 8C13 7.73736 12.9483 7.47728 12.8478 7.23463C12.7472 6.99198 12.5999 6.7715 12.4142 6.58579C12.2285 6.40007 12.008 6.25275 11.7654 6.15224C11.5227 6.05173 11.2626 6 11 6C10.7374 6 10.4773 6.05173 10.2346 6.15224C9.99198 6.25275 9.7715 6.40007 9.58579 6.58579C9.40007 6.7715 9.25275 6.99198 9.15224 7.23463C9.05173 7.47728 9 7.73736 9 8L11 8H13Z" fill="#D9D9D9" stroke-width="2" mask="url(#path-3-inside-1_23_180)"/>
</g>
</g>
<rect id="frame" x="8.25" y="3.25" width="5.5" height="5.5" rx="0.75" stroke-width="0.5"/>
</g>
<g id="lines">
<line id="Line 5" x1="2.5" y1="14.5" x2="13.5" y2="14.5" stroke-linecap="round"/>
<line id="Line 4" x1="2.5" y1="12.5" x2="13.5" y2="12.5" stroke-linecap="round"/>
<line id="Line 3" x1="2.5" y1="10.5" x2="13.5" y2="10.5" stroke-linecap="round"/>
<line id="Line 2" x1="2.5" y1="8.5" x2="6.5" y2="8.5" stroke-linecap="round"/>
<line id="Line 1" x1="2.5" y1="6.5" x2="6.5" y2="6.5" stroke-linecap="round"/>
</g>
</g>
</svg>
