<svg width="188" height="282" viewBox="0 0 188 282" fill="none" xmlns="http://www.w3.org/2000/svg">
<g id="sarath">
<path id="hair" d="M1.23486 118.783V137.826L4.76131 135.71L6.87718 132.889H11.1089L13.9301 135.71L15.3407 139.942L17.4565 145.584L15.3407 149.816V154.048V158.985V165.332V171.68L19.5724 174.501V178.028L21.6883 184.375V190.723L25.2147 192.839L26.6253 199.892L28.0359 206.239L31.5623 210.471L32.9729 213.997L34.3835 217.524V221.05H31.5623L29.4465 223.166L31.5623 226.693L38.6152 229.514L42.847 230.924V233.04L44.2575 237.977H47.0787L49.8999 240.093L52.721 242.209L54.8369 246.441V252.083L56.9528 256.315L61.8898 262.662L70.3533 264.073L73.1744 272.537L75.2903 268.305L76.7009 264.073L83.0485 266.189L78.8167 268.305V274.652L83.0485 276.768L86.5749 274.652L87.2802 270.421H92.9225L94.3331 275.358L97.1543 279.589H104.912L111.965 281L114.081 278.179L117.608 276.768V281H125.366L129.598 272.537L131.008 264.073L133.829 258.431L138.766 253.494L145.114 246.441L147.23 242.209L151.462 235.861L153.577 229.514L157.104 223.872L162.746 213.997L164.862 206.945L169.094 205.534L178.263 203.418L181.084 195.66H179.673L176.852 199.186H170.504L166.978 197.071V192.133V187.196L169.094 182.259L166.978 180.144L169.094 173.091L170.504 168.154V163.217L169.094 158.985V149.816V139.942L170.504 129.363V125.131L175.441 123.015L181.084 121.605L183.2 115.257L186.726 110.32V104.678L184.61 99.7406L183.2 95.5088L181.084 91.2771L178.263 88.4559L176.852 77.8766L173.326 75.7607V70.1184L171.915 67.2972H169.094L173.326 65.8867L175.441 63.7708L173.326 62.3602L175.441 58.1285L176.852 55.3073H173.326L170.504 52.4861L166.978 46.8438L163.451 43.3174L162.041 38.3804L157.104 34.1486L151.462 27.801L145.819 24.9798L140.177 20.0428L135.945 16.5164H130.303L128.892 13.6952L126.071 12.2846L117.608 13.6952L116.197 10.8741L112.671 8.0529L108.439 4.52645L102.091 1V3.11587L98.5648 6.64232L92.9225 8.0529L91.5119 4.52645H86.5749L82.3432 3.11587L79.522 1H73.8797L68.2374 3.11587L61.1845 8.75819L54.8369 12.9899L49.1946 20.0428L42.847 24.9798L37.9099 28.5063L32.9729 32.0327L30.857 34.8539L29.4465 40.4962L25.2147 43.3174L18.8671 44.728V50.3703L16.7512 53.1914L14.6354 54.602L9.69834 57.4232L4.05602 60.2443L6.87718 63.0655V66.5919V70.8237H4.05602V75.0554V87.7506V94.8035H1.23486V106.088V115.257V118.783Z" fill="#AC6D6D" stroke="black"/>
<path id="face" d="M19.5728 138.531L22.3939 163.217C23.8045 168.859 27.1899 181.131 29.4468 185.081C31.7037 189.03 36.0295 193.309 37.9103 194.955L44.9632 204.123H49.9002V199.892L47.7843 192.839V188.607L49.9002 186.491H55.5425L69.6483 181.554L72.4695 179.438L75.2906 178.733L79.5224 180.144L87.9859 182.965H95.0388H98.5652L103.502 181.554L106.323 179.438L110.555 178.733H125.366H133.83C135.24 178.968 138.344 180.144 139.472 182.965C140.6 185.786 139.942 188.372 139.472 189.312C139.707 190.488 141.024 192.416 144.409 190.723C148.641 188.607 151.462 185.786 156.399 180.849L156.399 180.849C161.336 175.912 160.631 173.091 163.452 162.511C165.709 154.048 164.392 143.939 163.452 139.942L160.631 130.773L159.22 120.194C157.81 116.432 154.706 108.768 153.578 108.204C152.449 107.64 152.167 104.207 152.167 102.562V92.6877C153.108 87.2804 154.142 75.0554 150.757 69.4131C146.525 62.3602 141.588 61.6549 139.472 59.539C137.779 57.8463 133.124 56.953 131.009 56.7179L116.197 55.3073H96.4493H86.5753L71.0589 58.1285L59.069 62.3602L40.7314 74.3501L26.6257 89.8665L22.3939 96.2141C23.8045 96.9194 26.6257 99.1763 26.6257 102.562V111.025L22.3939 122.31L19.5728 138.531Z" fill="#FFDE9E" stroke="black"/>
<path id="mouth" d="M58.3633 197.071L59.7739 203.418L66.8268 214.703L73.1744 225.282C75.5253 229.044 81.0736 236.003 84.459 233.746C87.8444 231.489 89.1609 227.163 89.396 225.282V221.05L88.6907 219.64H83.7537L78.1114 221.05L78.8167 218.229L83.0484 216.113L88.6907 214.703L90.8066 212.587H101.386L104.207 214.703L108.439 216.113V218.229C106.793 218.464 103.22 218.935 102.091 218.935C100.963 218.935 101.621 220.345 102.091 221.05C103.737 221.521 107.31 222.602 108.439 223.166C109.567 223.73 110.32 227.633 110.555 229.514C110.79 230.689 112.953 232.476 119.723 230.219C126.494 227.962 129.127 218.935 129.598 214.703L128.187 212.587H125.366L126.776 208.355L132.419 200.597C132.654 197.541 132.983 191.005 132.419 189.312C131.854 187.62 129.362 187.667 128.187 187.902H125.366H121.134L117.608 189.312H114.786H111.26C109.614 190.018 105.336 191.005 101.386 189.312L97.8595 186.491H93.6278H90.8066H88.6907L86.5749 187.902L84.459 189.312H83.0484L80.2273 191.428L78.8167 192.134L78.1114 193.544H74.5849L73.1744 194.955H69.6479L64.7109 198.481L61.1844 194.955H59.7739L58.3633 197.071Z" fill="#FFDE9E" stroke="black"/>
<g id="eyebrows">
<path d="M34.3836 124.426L30.1519 127.952V121.605C30.1519 118.783 36.4995 113.141 37.91 111.73C39.0385 110.602 42.1418 110.32 43.5524 110.32H66.1216C74.1149 115.492 86.0108 124.99 69.6481 121.605C49.1947 117.373 48.4894 120.194 43.5524 120.194C39.6027 120.194 35.7942 123.015 34.3836 124.426Z" fill="black"/>
<path d="M121.84 114.552L109.85 118.783C109.144 118.078 107.593 116.244 107.028 114.552C106.323 112.436 108.439 108.204 109.85 106.793C110.978 105.665 115.492 104.913 117.608 104.678H128.892H135.945L139.472 106.793L143.703 111.73L147.23 116.668H145.819C144.409 115.962 141.164 114.27 139.472 113.141C137.779 112.013 133.124 112.671 131.008 113.141L121.84 114.552Z" fill="black"/>
<path d="M34.3836 124.426L30.1519 127.952V121.605C30.1519 118.783 36.4995 113.141 37.91 111.73C39.0385 110.602 42.1418 110.32 43.5524 110.32H66.1216C74.1149 115.492 86.0108 124.99 69.6481 121.605C49.1947 117.373 48.4894 120.194 43.5524 120.194C39.6027 120.194 35.7942 123.015 34.3836 124.426Z" stroke="black"/>
<path d="M121.84 114.552L109.85 118.783C109.144 118.078 107.593 116.244 107.028 114.552C106.323 112.436 108.439 108.204 109.85 106.793C110.978 105.665 115.492 104.913 117.608 104.678H128.892H135.945L139.472 106.793L143.703 111.73L147.23 116.668H145.819C144.409 115.962 141.164 114.27 139.472 113.141C137.779 112.013 133.124 112.671 131.008 113.141L121.84 114.552Z" stroke="black"/>
</g>
<path id="right_ear" d="M12.5197 135.71L16.0462 144.879L15.3409 152.637L14.6356 166.038L15.3409 172.385L18.8673 173.796V178.028V179.107L16.0462 182.965C14.8707 183.67 12.0965 184.657 10.4038 182.965C8.71115 181.272 8.28799 179.688 8.28799 179.107V171.68C8.28799 170.975 4.05626 167.448 1.94039 156.869C-0.175483 146.29 1.94039 144.879 1.94039 140.647C1.94039 136.416 4.76154 135.71 8.28799 133.594C11.1092 131.902 12.2846 134.3 12.5197 135.71Z" fill="#FFDE9E" stroke="black"/>
<path id="left_ear" d="M181.084 132.184C177.698 124.849 173.091 125.366 171.21 126.542L168.389 148.406L171.21 163.922L166.978 178.733L168.389 182.259C169.799 182.495 173.326 182.542 176.147 180.849C179.673 178.733 179.673 173.796 181.084 168.859C182.212 164.909 184.375 154.518 185.316 149.816C185.316 146.995 184.469 139.519 181.084 132.184Z" fill="#FFDE9E" stroke="black"/>
</g>
</svg>
